<mxfile host="app.diagrams.net" modified="2024-07-23T10:56:58.399Z" agent="Mozilla/5.0 (Windows NT 10.0; Win64; x64) AppleWebKit/537.36 (KHTML, like Gecko) Chrome/126.0.0.0 Safari/537.36" etag="wW9k8tGgY72psgR2f87e" version="24.7.3" type="device">
  <diagram id="C5RBs43oDa-KdzZeNtuy" name="Page-1">
    <mxGraphModel dx="1615" dy="865" grid="1" gridSize="10" guides="1" tooltips="1" connect="1" arrows="1" fold="1" page="1" pageScale="1" pageWidth="827" pageHeight="1169" math="0" shadow="0">
      <root>
        <mxCell id="WIyWlLk6GJQsqaUBKTNV-0" />
        <mxCell id="WIyWlLk6GJQsqaUBKTNV-1" parent="WIyWlLk6GJQsqaUBKTNV-0" />
        <mxCell id="I830Mtel0ViA4OwcPWyJ-3" value="User" style="shape=umlActor;verticalLabelPosition=bottom;verticalAlign=top;html=1;outlineConnect=0;fillColor=#ffe6cc;strokeColor=#d79b00;" parent="WIyWlLk6GJQsqaUBKTNV-1" vertex="1">
          <mxGeometry x="80" y="290" width="70" height="120" as="geometry" />
        </mxCell>
        <mxCell id="I830Mtel0ViA4OwcPWyJ-4" value="" style="swimlane;startSize=0;" parent="WIyWlLk6GJQsqaUBKTNV-1" vertex="1">
          <mxGeometry x="290" y="40" width="280" height="1410" as="geometry" />
        </mxCell>
        <mxCell id="I830Mtel0ViA4OwcPWyJ-6" value="&lt;h3&gt;view product&lt;/h3&gt;" style="ellipse;whiteSpace=wrap;html=1;" parent="I830Mtel0ViA4OwcPWyJ-4" vertex="1">
          <mxGeometry x="49.5" y="30" width="170" height="60" as="geometry" />
        </mxCell>
        <mxCell id="I830Mtel0ViA4OwcPWyJ-7" value="Search products" style="ellipse;whiteSpace=wrap;html=1;" parent="I830Mtel0ViA4OwcPWyJ-4" vertex="1">
          <mxGeometry x="50" y="130" width="170" height="60" as="geometry" />
        </mxCell>
        <mxCell id="I830Mtel0ViA4OwcPWyJ-9" value="Add to Cart" style="ellipse;whiteSpace=wrap;html=1;" parent="I830Mtel0ViA4OwcPWyJ-4" vertex="1">
          <mxGeometry x="50" y="230" width="170" height="60" as="geometry" />
        </mxCell>
        <mxCell id="I830Mtel0ViA4OwcPWyJ-13" value="View Cart" style="ellipse;whiteSpace=wrap;html=1;" parent="I830Mtel0ViA4OwcPWyJ-4" vertex="1">
          <mxGeometry x="50" y="330" width="170" height="60" as="geometry" />
        </mxCell>
        <mxCell id="I830Mtel0ViA4OwcPWyJ-15" value="Login" style="ellipse;whiteSpace=wrap;html=1;" parent="I830Mtel0ViA4OwcPWyJ-4" vertex="1">
          <mxGeometry x="50" y="420" width="170" height="60" as="geometry" />
        </mxCell>
        <mxCell id="I830Mtel0ViA4OwcPWyJ-17" value="Register" style="ellipse;whiteSpace=wrap;html=1;" parent="I830Mtel0ViA4OwcPWyJ-4" vertex="1">
          <mxGeometry x="50" y="510" width="170" height="60" as="geometry" />
        </mxCell>
        <mxCell id="I830Mtel0ViA4OwcPWyJ-27" value="Place Order" style="ellipse;whiteSpace=wrap;html=1;" parent="I830Mtel0ViA4OwcPWyJ-4" vertex="1">
          <mxGeometry x="49.5" y="600" width="170" height="60" as="geometry" />
        </mxCell>
        <mxCell id="I830Mtel0ViA4OwcPWyJ-32" value="Manage Orders" style="ellipse;whiteSpace=wrap;html=1;" parent="I830Mtel0ViA4OwcPWyJ-4" vertex="1">
          <mxGeometry x="70" y="940" width="170" height="60" as="geometry" />
        </mxCell>
        <mxCell id="I830Mtel0ViA4OwcPWyJ-34" value="Manage Customers" style="ellipse;whiteSpace=wrap;html=1;" parent="I830Mtel0ViA4OwcPWyJ-4" vertex="1">
          <mxGeometry x="69.5" y="1030" width="170" height="60" as="geometry" />
        </mxCell>
        <mxCell id="I830Mtel0ViA4OwcPWyJ-38" value="Manage Products" style="ellipse;whiteSpace=wrap;html=1;" parent="I830Mtel0ViA4OwcPWyJ-4" vertex="1">
          <mxGeometry x="75" y="1140" width="170" height="60" as="geometry" />
        </mxCell>
        <mxCell id="I830Mtel0ViA4OwcPWyJ-21" value="" style="endArrow=none;html=1;rounded=0;exitX=0;exitY=0.5;exitDx=0;exitDy=0;" parent="WIyWlLk6GJQsqaUBKTNV-1" source="I830Mtel0ViA4OwcPWyJ-6" edge="1">
          <mxGeometry width="50" height="50" relative="1" as="geometry">
            <mxPoint x="410" y="370" as="sourcePoint" />
            <mxPoint x="160" y="310" as="targetPoint" />
          </mxGeometry>
        </mxCell>
        <mxCell id="I830Mtel0ViA4OwcPWyJ-22" value="" style="endArrow=none;html=1;rounded=0;entryX=0;entryY=0.5;entryDx=0;entryDy=0;" parent="WIyWlLk6GJQsqaUBKTNV-1" target="I830Mtel0ViA4OwcPWyJ-7" edge="1">
          <mxGeometry width="50" height="50" relative="1" as="geometry">
            <mxPoint x="170" y="330" as="sourcePoint" />
            <mxPoint x="460" y="270" as="targetPoint" />
          </mxGeometry>
        </mxCell>
        <mxCell id="I830Mtel0ViA4OwcPWyJ-23" value="" style="endArrow=none;html=1;rounded=0;entryX=0;entryY=0.5;entryDx=0;entryDy=0;" parent="WIyWlLk6GJQsqaUBKTNV-1" target="I830Mtel0ViA4OwcPWyJ-9" edge="1">
          <mxGeometry width="50" height="50" relative="1" as="geometry">
            <mxPoint x="170" y="350" as="sourcePoint" />
            <mxPoint x="460" y="270" as="targetPoint" />
          </mxGeometry>
        </mxCell>
        <mxCell id="I830Mtel0ViA4OwcPWyJ-24" value="" style="endArrow=none;html=1;rounded=0;entryX=0;entryY=0.5;entryDx=0;entryDy=0;" parent="WIyWlLk6GJQsqaUBKTNV-1" target="I830Mtel0ViA4OwcPWyJ-13" edge="1">
          <mxGeometry width="50" height="50" relative="1" as="geometry">
            <mxPoint x="170" y="370" as="sourcePoint" />
            <mxPoint x="460" y="270" as="targetPoint" />
          </mxGeometry>
        </mxCell>
        <mxCell id="I830Mtel0ViA4OwcPWyJ-25" value="" style="endArrow=none;html=1;rounded=0;entryX=0;entryY=0.5;entryDx=0;entryDy=0;" parent="WIyWlLk6GJQsqaUBKTNV-1" target="I830Mtel0ViA4OwcPWyJ-15" edge="1">
          <mxGeometry width="50" height="50" relative="1" as="geometry">
            <mxPoint x="170" y="390" as="sourcePoint" />
            <mxPoint x="460" y="360" as="targetPoint" />
          </mxGeometry>
        </mxCell>
        <mxCell id="I830Mtel0ViA4OwcPWyJ-26" value="" style="endArrow=none;html=1;rounded=0;entryX=0;entryY=0.5;entryDx=0;entryDy=0;" parent="WIyWlLk6GJQsqaUBKTNV-1" target="I830Mtel0ViA4OwcPWyJ-17" edge="1">
          <mxGeometry width="50" height="50" relative="1" as="geometry">
            <mxPoint x="160" y="400" as="sourcePoint" />
            <mxPoint x="460" y="360" as="targetPoint" />
          </mxGeometry>
        </mxCell>
        <mxCell id="I830Mtel0ViA4OwcPWyJ-29" value="" style="endArrow=none;html=1;rounded=0;entryX=0;entryY=0.5;entryDx=0;entryDy=0;" parent="WIyWlLk6GJQsqaUBKTNV-1" target="I830Mtel0ViA4OwcPWyJ-27" edge="1">
          <mxGeometry width="50" height="50" relative="1" as="geometry">
            <mxPoint x="150" y="430" as="sourcePoint" />
            <mxPoint x="460" y="560" as="targetPoint" />
          </mxGeometry>
        </mxCell>
        <mxCell id="I830Mtel0ViA4OwcPWyJ-30" value="Admin" style="shape=umlActor;verticalLabelPosition=bottom;verticalAlign=top;html=1;outlineConnect=0;" parent="WIyWlLk6GJQsqaUBKTNV-1" vertex="1">
          <mxGeometry x="60" y="980" width="70" height="120" as="geometry" />
        </mxCell>
        <mxCell id="I830Mtel0ViA4OwcPWyJ-36" value="" style="endArrow=none;html=1;rounded=0;exitX=0;exitY=0.5;exitDx=0;exitDy=0;" parent="WIyWlLk6GJQsqaUBKTNV-1" source="I830Mtel0ViA4OwcPWyJ-32" edge="1">
          <mxGeometry width="50" height="50" relative="1" as="geometry">
            <mxPoint x="430" y="1010" as="sourcePoint" />
            <mxPoint x="360" y="1010" as="targetPoint" />
            <Array as="points">
              <mxPoint x="150" y="1030" />
            </Array>
          </mxGeometry>
        </mxCell>
        <mxCell id="I830Mtel0ViA4OwcPWyJ-37" value="" style="endArrow=none;html=1;rounded=0;exitX=0;exitY=0.5;exitDx=0;exitDy=0;" parent="WIyWlLk6GJQsqaUBKTNV-1" source="I830Mtel0ViA4OwcPWyJ-34" edge="1">
          <mxGeometry width="50" height="50" relative="1" as="geometry">
            <mxPoint x="430" y="1010" as="sourcePoint" />
            <mxPoint x="150" y="1050" as="targetPoint" />
          </mxGeometry>
        </mxCell>
        <mxCell id="I830Mtel0ViA4OwcPWyJ-40" value="" style="endArrow=none;html=1;rounded=0;entryX=0;entryY=0.5;entryDx=0;entryDy=0;" parent="WIyWlLk6GJQsqaUBKTNV-1" target="I830Mtel0ViA4OwcPWyJ-38" edge="1">
          <mxGeometry width="50" height="50" relative="1" as="geometry">
            <mxPoint x="150" y="1070" as="sourcePoint" />
            <mxPoint x="500" y="1040" as="targetPoint" />
          </mxGeometry>
        </mxCell>
      </root>
    </mxGraphModel>
  </diagram>
</mxfile>
